<svg xmlns="http://www.w3.org/2000/svg" viewBox="0 0 64 64" width="64" height="64">
  <!-- Background circle -->
  <circle cx="32" cy="32" r="30" fill="#2563eb"/>
  
  <!-- Screw 1 (left) -->
  <g transform="translate(20, 20)">
    <!-- Screw head -->
    <circle cx="0" cy="0" r="6" fill="#ffffff"/>
    <line x1="-4" y1="0" x2="4" y2="0" stroke="#2563eb" stroke-width="1.5" stroke-linecap="round"/>
    <line x1="0" y1="-4" x2="0" y2="4" stroke="#2563eb" stroke-width="1.5" stroke-linecap="round"/>
    <!-- Screw body -->
    <rect x="-2" y="6" width="4" height="16" fill="#e5e7eb" rx="1"/>
    <line x1="-1" y1="8" x2="-1" y2="20" stroke="#9ca3af" stroke-width="0.5"/>
    <line x1="1" y1="8" x2="1" y2="20" stroke="#9ca3af" stroke-width="0.5"/>
  </g>
  
  <!-- Screw 2 (right) -->
  <g transform="translate(44, 20)">
    <!-- Screw head -->
    <circle cx="0" cy="0" r="6" fill="#ffffff"/>
    <line x1="-4" y1="-4" x2="4" y2="4" stroke="#2563eb" stroke-width="1.5" stroke-linecap="round"/>
    <line x1="-4" y1="4" x2="4" y2="-4" stroke="#2563eb" stroke-width="1.5" stroke-linecap="round"/>
    <!-- Screw body -->
    <rect x="-2" y="6" width="4" height="16" fill="#e5e7eb" rx="1"/>
    <line x1="-1" y1="8" x2="-1" y2="20" stroke="#9ca3af" stroke-width="0.5"/>
    <line x1="1" y1="8" x2="1" y2="20" stroke="#9ca3af" stroke-width="0.5"/>
  </g>
  
  <!-- Wrench icon at bottom -->
  <g transform="translate(32, 48)">
    <path d="M-8,-2 L-6,-4 L-2,-4 L0,-2 L2,-4 L6,-4 L8,-2 L6,0 L2,0 L0,-2 L-2,0 L-6,0 Z" 
          fill="#ffffff" stroke="#1e40af" stroke-width="0.5"/>
  </g>
</svg>
